Coordinates
version=1
nRows=14
nColumns=46
inDegrees=yes

Units are S.I. units (second, meters, Newtons, ...)
Angles are in degrees.

endheader
time	pelvis_tilt	pelvis_list	pelvis_rotation	pelvis_tx	pelvis_ty	pelvis_tz	bb_angle	bb_tx	bb_ty	bb_tz	hip_flexion_r	hip_adduction_r	hip_rotation_r	knee_angle_r	knee_angle_r_beta	ankle_angle_r	subtalar_angle_r	mtp_angle_r	crank_angle_r	hip_flexion_l	hip_adduction_l	hip_rotation_l	knee_angle_l	knee_angle_l_beta	ankle_angle_l	subtalar_angle_l	mtp_angle_l	crank_angle_l	lumbar_extension	lumbar_bending	lumbar_rotation	arm_flex_r	arm_add_r	arm_rot_r	elbow_flex_r	pro_sup_r	wrist_flex_r	wrist_dev_r	arm_flex_l	arm_add_l	arm_rot_l	elbow_flex_l	pro_sup_l	wrist_flex_l	wrist_dev_l
      0.00000000	    -19.87338526	     -6.12079323	     -0.93945749	      0.11072682	      1.13782756	     -0.24562910	      0.00000000	      0.50000000	      0.00000000	      0.25000000	     91.69653599	     -6.87973443	     -6.12128998	     94.50362708	      1.64939945	     20.36990582	     -2.41561108	      0.00000000	      0.00000000	     49.77948067	    -13.06561611	     -2.53579305	     56.84398383	      0.99211468	     21.32869120	      5.84906171	      0.00000000	      0.00000000	    -45.64966385	      5.77359933	      8.05661721	     89.41662264	    -10.53256956	     36.73754911	     29.61722446	     24.56871977	      0.00000000	      0.00000000	     89.48797144	     -0.32443084	     38.33980291	     20.40830247	     22.31354569	      0.00000000	      0.00000000
      0.00500000	    -19.86389711	     -6.12801560	     -0.94864263	      0.11071625	      1.13782768	     -0.24561325	      0.00000000	      0.50000000	      0.00000000	      0.25000000	     91.69694142	     -6.87126323	     -6.12957839	     94.52592482	      1.64978862	     20.38128178	     -2.42137785	      0.00000000	      0.00000000	     49.75058151	    -13.06673187	     -2.52462464	     56.80969721	      0.99151626	     21.34485796	      5.78275596	      0.00000000	      0.00000000	    -45.64836512	      5.77519213	      8.11380790	     89.41934336	    -10.63370372	     36.85315257	     29.30224266	     26.26377273	      0.00000000	      0.00000000	     89.48403797	     -0.66474067	     39.33544187	     20.33426022	     23.84927149	      0.00000000	      0.00000000
      0.01000000	    -19.88041324	     -6.14972093	     -0.94608786	      0.11073004	      1.13779568	     -0.24560586	      0.00000000	      0.50000000	      0.00000000	      0.25000000	     91.71628460	     -6.87904013	     -6.15369823	     94.54628029	      1.65014389	     20.39015872	     -2.43463249	      0.00000000	      0.00000000	     49.75625367	    -13.07859081	     -2.51060493	     56.77741178	      0.99095278	     21.36070457	      5.78556859	      0.00000000	      0.00000000	    -45.62147927	      5.78842618	      8.12364331	     89.42438385	    -10.75429355	     36.99650626	     28.91031840	     28.98456982	      0.00000000	      0.00000000	     89.48836699	     -0.64484674	     39.03379980	     19.90916502	     26.20213522	      0.00000000	      0.00000000
      0.01500000	    -19.90969658	     -6.47489296	     -1.07563344	      0.11046496	      1.13740089	     -0.24481511	      0.00000000	      0.50000000	      0.00000000	      0.25000000	     91.72297526	     -6.61099964	     -6.47867716	     94.52793817	      1.64982376	     20.39895017	     -2.56347584	      0.00000000	      0.00000000	     49.87732174	    -13.37951951	     -2.15659606	     56.85291074	      0.99227048	     21.57056340	      6.28029174	      0.00000000	      0.00000000	    -45.71355713	      5.91725961	      8.50282133	     89.38321907	    -10.73003407	     35.56189622	     29.50075324	     29.89239472	      0.00000000	      0.00000000	     89.46437754	     -0.53412006	     37.44557095	     20.55909677	     27.18627672	      0.00000000	      0.00000000
      0.02000000	    -20.08766406	     -6.26311259	     -1.08263898	      0.11038752	      1.13728419	     -0.24513297	      0.00000000	      0.50000000	      0.00000000	      0.25000000	     91.97612035	     -6.60984548	     -6.20364679	     94.54408360	      1.65010555	     20.26915300	     -2.72215916	      0.00000000	      0.00000000	     50.02907722	    -13.28313032	     -2.44661196	     56.84387842	      0.99211284	     21.46353179	      5.64842979	      0.00000000	      0.00000000	    -45.37947401	      5.73793775	      8.29129291	     89.38998123	    -10.30332956	     35.40955299	     28.47991882	     30.13561226	      0.00000000	      0.00000000	     89.49207367	     -0.14670304	     37.04918774	     19.44554155	     27.32714006	      0.00000000	      0.00000000
      0.02500000	    -20.09394706	     -6.29083125	     -1.07641815	      0.11035689	      1.13730702	     -0.24514632	      0.00000000	      0.50000000	      0.00000000	      0.25000000	     91.97447260	     -6.61220643	     -6.23049616	     94.54812575	      1.65017610	     20.28364621	     -2.72698900	      0.00000000	      0.00000000	     50.03240254	    -13.29899824	     -2.40711260	     56.81766854	      0.99165539	     21.49529882	      5.82640169	      0.00000000	      0.00000000	    -45.36904686	      5.76245195	      8.34887224	     89.40309949	    -10.81047587	     36.88755512	     28.52281922	     31.14439074	      0.00000000	      0.00000000	     89.49735444	     -0.48451314	     38.89614473	     19.37621620	     27.76186345	      0.00000000	      0.00000000
      0.03000000	    -20.09473262	     -6.28610272	     -1.07020760	      0.11035006	      1.13732731	     -0.24517932	      0.00000000	      0.50000000	      0.00000000	      0.25000000	     91.97747145	     -6.62984856	     -6.22811945	     94.56019639	      1.65038677	     20.29960821	     -2.70686844	      0.00000000	      0.00000000	     50.02013717	    -13.28761945	     -2.40522401	     56.79076314	      0.99118580	     21.50864705	      5.84900304	      0.00000000	      0.00000000	    -45.37370395	      5.76602772	      8.32369049	     89.39881763	    -10.49226461	     35.87943645	     28.30394011	     31.30534226	      0.00000000	      0.00000000	     89.49061818	     -0.30038799	     37.73526616	     19.39400525	     27.93324585	      0.00000000	      0.00000000
      0.03500000	    -19.98817166	     -6.32384016	     -1.05453723	      0.11039769	      1.13755594	     -0.24521765	      0.00000000	      0.50000000	      0.00000000	      0.25000000	     91.84115898	     -6.64528693	     -6.27514173	     94.56995813	      1.65055714	     20.36468160	     -2.63759655	      0.00000000	      0.00000000	     49.88620593	    -13.32211507	     -2.39588237	     56.74496695	      0.99038651	     21.55377182	      5.96830259	      0.00000000	      0.00000000	    -45.52936442	      5.78781948	      8.39975612	     89.38995107	    -10.08720692	     33.88932534	     28.16969617	     31.65964335	      0.00000000	      0.00000000	     89.47816358	      0.35518376	     34.58545991	     19.41145346	     28.41616642	      0.00000000	      0.00000000
      0.04000000	    -20.08900770	     -6.27634003	     -1.06099414	      0.11035657	      1.13735413	     -0.24518199	      0.00000000	      0.50000000	      0.00000000	      0.25000000	     91.96974551	     -6.64937664	     -6.22698863	     94.57777909	      1.65069364	     20.34645503	     -2.71877981	      0.00000000	      0.00000000	     49.98002408	    -13.25426247	     -2.39744913	     56.72451889	      0.99002962	     21.52599083	      5.83461515	      0.00000000	      0.00000000	    -45.37913788	      5.76587769	      8.30379863	     89.41194005	    -10.74142237	     36.85408891	     28.48109102	     30.74907817	      0.00000000	      0.00000000	     89.48999735	     -0.57301754	     38.93959175	     19.61529846	     27.07585000	      0.00000000	      0.00000000
      0.04500000	    -20.08562974	     -6.27699869	     -1.06597021	      0.11033916	      1.13738616	     -0.24520458	      0.00000000	      0.50000000	      0.00000000	      0.25000000	     91.96523116	     -6.65177742	     -6.22908852	     94.57602298	      1.65066299	     20.32426012	     -2.69929557	      0.00000000	      0.00000000	     49.96191081	    -13.24761359	     -2.39729675	     56.70166831	      0.98963080	     21.52735174	      5.78661796	      0.00000000	      0.00000000	    -45.39170029	      5.75968104	      8.30896281	     89.39975855	    -10.46753068	     35.74750211	     28.31755870	     31.26217044	      0.00000000	      0.00000000	     89.49047704	     -0.31577528	     37.69655712	     19.45150998	     27.68890208	      0.00000000	      0.00000000
      0.05000000	    -20.06394359	     -6.31711066	     -1.03149424	      0.11032562	      1.13741571	     -0.24526659	      0.00000000	      0.50000000	      0.00000000	      0.25000000	     91.92619058	     -6.69496266	     -6.27870223	     94.58041077	      1.65073958	     20.34772771	     -2.67440583	      0.00000000	      0.00000000	     49.96547724	    -13.26199114	     -2.35162768	     56.71638846	      0.98988772	     21.53589774	      5.87388363	      0.00000000	      0.00000000	    -45.42915172	      5.81296431	      8.29797711	     89.39905415	    -10.19279142	     34.99745760	     28.32098848	     30.18281252	      0.00000000	      0.00000000	     89.48023911	      0.07030788	     35.63158964	     19.70633163	     26.47179649	      0.00000000	      0.00000000
      0.05500000	    -20.08284066	     -6.27683369	     -1.08256556	      0.11034193	      1.13741007	     -0.24518054	      0.00000000	      0.50000000	      0.00000000	      0.25000000	     91.95543169	     -6.64640704	     -6.23656176	     94.57816796	      1.65070043	     20.35605688	     -2.65553714	      0.00000000	      0.00000000	     49.95429749	    -13.26586525	     -2.41319548	     56.69587460	      0.98952968	     21.52417273	      5.83331606	      0.00000000	      0.00000000	    -45.40778079	      5.75355295	      8.29508874	     89.40033962	    -10.11640613	     34.86058280	     28.17304208	     30.69047311	      0.00000000	      0.00000000	     89.48033585	      0.09849479	     35.38838822	     19.55856312	     27.06313046	      0.00000000	      0.00000000
      0.06000000	    -20.09045118	     -6.23615337	     -1.15585486	      0.11039971	      1.13749937	     -0.24505538	      0.00000000	      0.50000000	      0.00000000	      0.25000000	     91.96582684	     -6.57301072	     -6.19768416	     94.56173852	      1.65041368	     20.31371421	     -2.65192149	      0.00000000	      0.00000000	     49.90978808	    -13.29657308	     -2.52023316	     56.65913281	      0.98888842	     21.49210359	      5.70548246	      0.00000000	      0.00000000	    -45.43302444	      5.65300018	      8.37000212	     89.36159238	     -9.71455402	     32.36377679	     27.83054009	     33.20349054	      0.00000000	      0.00000000	     89.48446144	      0.78209982	     32.01336672	     19.01538418	     30.02386657	      0.00000000	      0.00000000
      0.06500000	    -20.11651122	     -6.29798882	     -1.08089954	      0.11031372	      1.13735764	     -0.24523804	      0.00000000	      0.50000000	      0.00000000	      0.25000000	     91.98025060	     -6.67173616	     -6.27215653	     94.56374957	      1.65044878	     20.35246034	     -2.65049154	      0.00000000	      0.00000000	     50.00066587	    -13.26608494	     -2.38310897	     56.70364437	      0.98966529	     21.51706144	      5.75574968	      0.00000000	      0.00000000	    -45.35862603	      5.75316027	      8.35627910	     89.41138235	    -10.89363039	     36.95971397	     28.42388355	     31.79805003	      0.00000000	      0.00000000	     89.49677954	     -0.49608298	     38.75025802	     19.40371212	     28.07991707	      0.00000000	      0.00000000
